<svg width="14" height="13" fill="none" xmlns="http://www.w3.org/2000/svg"><path d="M12.944 10.362l-.065-.195c-.153-.455-.655-.93-1.117-1.056l-1.708-.466c-.464-.126-1.124.043-1.463.382l-.619.618A6.558 6.558 0 013.357 5.03l.619-.618c.339-.34.508-1 .382-1.462l-.466-1.71C3.766.778 3.29.276 2.836.124L2.64.06C2.184-.092 1.534.061 1.195.4l-.925.926C.105 1.49 0 1.96 0 1.962a10.922 10.922 0 003.196 7.842A10.925 10.925 0 0011.014 13c.016 0 .5-.104.665-.269l.924-.925c.34-.338.492-.988.34-1.444z" fill="#000"/></svg>