<svg width="25" height="26" fill="none" xmlns="http://www.w3.org/2000/svg"><g clip-path="url(#clip0_54_2259)" fill-rule="evenodd" clip-rule="evenodd"><path d="M0 12.004C0 6.347 0 3.518 1.758 1.76 3.515.004 6.343.004 12 .004h1c5.657 0 8.485 0 10.243 1.757C25 3.52 25 6.347 25 12.004v1c0 5.657 0 8.485-1.757 10.242-1.757 1.758-4.586 1.758-10.243 1.758h-1c-5.657 0-8.485 0-10.242-1.758C0 21.49 0 18.66 0 13.004v-1z" fill="#000"/><path d="M13.302 18.014c-5.698 0-8.948-3.906-9.083-10.406h2.854c.093 4.77 2.198 6.792 3.865 7.208V7.608h2.687v4.114c1.646-.177 3.375-2.051 3.958-4.114h2.688c-.448 2.542-2.323 4.416-3.656 5.187 1.333.626 3.469 2.261 4.281 5.22h-2.958c-.636-1.98-2.219-3.511-4.313-3.72v3.72h-.322l-.001-.001z" fill="#FEFEFE"/></g><defs><clipPath id="clip0_54_2259"><path fill="#fff" transform="translate(0 .003)" d="M0 0h25v25H0z"/></clipPath></defs></svg>