<svg width="252" height="212" fill="none" xmlns="http://www.w3.org/2000/svg"><path d="M12.526 403.496c-40.138-4.542-80.52-18.225-111.63-44.842-16.783-14.391-29.555-32.357-39.185-52.167-5.595-11.582-10.367-23.507-14.963-35.5-4.603-12.114-9.321-24.162-13.219-36.552-7.86-24.898-12.122-50.941-7.253-76.781 2.285-12.341 6.381-24.472 11.891-35.951 1.882-6.358 4.25-12.62 7.169-18.669 8.696-18.144 20.952-34.781 35.326-48.815C-86.992 22.719-44.478 5.339.183 1.282c48.242-4.418 97.935 6.086 141.899 26.213 22.074 10.09 42.055 23.717 57.578 42.628 14.942 18.157 25.09 39.808 33.679 61.478 9.627 24.266 17.828 49.93 18.027 76.298.221 25.644-6.736 50.566-16.774 73.957-17.733 41.183-45.194 82.194-86.088 102.984-22.784 11.567-47.874 16.987-73.187 19.346-20.954 1.96-42.023 1.757-62.964-.561l.173-.129z" fill="#E31E25"/></svg>