<svg width="1258" height="471" fill="none" xmlns="http://www.w3.org/2000/svg"><path fill-rule="evenodd" clip-rule="evenodd" d="M668.977 466.938c234.026 39.315 290.538-311.231 547.663-229.097 96.62 30.856 181.57 80.489 285.13 44.95 99.59-34.171 193.13-134.308 225.57-233.46 48.63-148.624-57.63-273.756-163.47-366.645-191.88-168.303-441.32-296.223-689.371-355.448-187.022-44.644-412.714-42.124-564.272 89.432C182.444-472.444-96.601-146.451 35.515 34.02c53.266 72.762 178.374 113.898 248.671 172.467 103.605 86.439 245.355 237.005 384.93 260.453l-.139-.002z" fill="#E9E7E8"/></svg>