<svg width="343" height="115" fill="none" xmlns="http://www.w3.org/2000/svg"><path fill-rule="evenodd" clip-rule="evenodd" d="M308.188-109.629c-48.123-7.242-97.58-7.979-145.939-2.6-40.388 4.498-75.67 6.881-112.522 27.408C5.235-60.03-18.735-35.555 18.561 11.953 49.898 51.855 92.395 85.678 146.407 80.05c56.444-5.872 90.006-20.79 141.843 11.185 18.202 11.225 38.416 27.249 61.298 22.501 27.583-5.73 45.157-37.493 55.676-60.75 14.154-31.23 24.816-71.842 9.774-104.674-18.256-39.826-67.405-52.01-106.828-57.939l.018-.002z" fill="#FF7426"/></svg>