<svg width="588" height="206" fill="none" xmlns="http://www.w3.org/2000/svg"><path d="M28.417 202.944v.011c57.65 8.501 93.888-27.903 130.914-65.101 2.106-2.116 4.214-4.234 6.329-6.346 19.569-19.546 39.699-38.575 63.547-50.12 23.927-11.582 51.529-15.604 85.962-5.316 10.295 3.075 20.354 6.557 30.259 9.986 2.448.847 4.886 1.691 7.316 2.525 12.283 4.214 24.373 8.174 36.542 11.038 24.306 5.719 48.864 7.049 75.637-2.762l.516 1.409-.516-1.409C516.638 77.912 564.721 24.357 580.8-27.999c11.996-39.065 3.911-74.672-14.264-106.552-18.197-31.92-46.482-60.046-74.753-84.008-102.474-86.807-234.887-151.705-365.94-180.351-98.816-21.596-217.142-17.782-295.303 52.891l-1.006-1.113 1.006 1.113c-33.082 29.905-85.595 88.606-120.922 151.519-17.663 31.457-30.981 63.881-35.472 94.228-4.488 30.325-.151 58.47 17.356 81.567l-1.196.906 1.196-.905c14.149 18.668 37.637 33.122 62.524 46.757 4.885 2.675 9.824 5.32 14.751 7.959 20.052 10.736 39.911 21.37 55.106 33.59v.001c10.772 8.676 22.328 18.619 34.473 29.069 3.495 3.007 7.039 6.056 10.626 9.129 16.071 13.764 33.05 28.027 50.594 41.233 35.126 26.442 72.34 48.505 108.841 53.91z" stroke="#E9E7E8" stroke-width="3"/></svg>