<svg width="524" height="253" fill="none" xmlns="http://www.w3.org/2000/svg"><mask id="mask0_54_2274" style="mask-type:alpha" maskUnits="userSpaceOnUse" x="0" y="0" width="524" height="253"><path fill="#D9D9D9" d="M0 0h524v253H0z"/></mask><g mask="url(#mask0_54_2274)"><path fill-rule="evenodd" clip-rule="evenodd" d="M149.74 348.292c48.123 7.242 97.58 7.979 145.939 2.6 40.388-4.498 75.671-6.881 112.522-27.408 44.492-24.79 68.462-49.266 31.167-96.774-31.338-39.902-73.834-73.724-127.847-68.097-56.444 5.872-90.005 20.791-141.842-11.185-18.202-11.225-38.417-27.249-61.299-22.501-27.583 5.73-45.157 37.493-55.676 60.75-14.154 31.23-24.816 71.842-9.774 104.674 18.257 39.826 67.405 52.01 106.828 57.94l-.018.001z" fill="#FF7426"/></g></svg>