<svg width="155" height="242" fill="none" xmlns="http://www.w3.org/2000/svg"><path d="M112.141 240.047c-23.866-2.656-47.87-10.735-66.348-26.492-9.969-8.52-17.55-19.164-23.26-30.904-3.317-6.865-6.145-13.933-8.869-21.042-2.727-7.181-5.523-14.322-7.83-21.667-4.654-14.76-7.167-30.202-4.25-45.532 1.369-7.322 3.814-14.52 7.1-21.334a73.547 73.547 0 014.28-11.08C18.15 51.228 25.453 41.35 34.013 33.013 53.274 14.3 78.572 3.953 105.134 1.505c28.693-2.665 58.236 3.519 84.365 15.416 13.118 5.964 24.99 14.028 34.205 25.23 8.871 10.755 14.888 23.587 19.978 36.43 5.705 14.385 10.561 29.598 10.657 45.237.11 15.209-4.047 29.997-10.036 43.879-10.58 24.443-26.945 48.792-51.281 61.161-13.56 6.881-28.485 10.119-43.54 11.542a184.771 184.771 0 01-37.444-.275l.103-.077z" fill="#E31E25"/></svg>