<svg width="187" height="201" fill="none" xmlns="http://www.w3.org/2000/svg"><path fill-rule="evenodd" clip-rule="evenodd" d="M160.924 102.519c0 26.403-20.461 55.13-37.4 63.35-24.728 11.999-60.718-2.382-76.068-17.732-25.696-25.695-22.68-83.585 10.331-107.039 25.62-18.202 62.597-14.964 86.205 9.734 14.846 15.535 16.932 28.503 16.932 51.687zm8.246-10.107c1.803-13.152 10.069-2.8 15.536-14.152-4.338-2.374-7.668 1.864-17.764 2.021-3.993-16.957 8.803-4.466 10.029-20.215-6.915 1.76-7.035 3.842-14.812 6.397l-3.241-11.023c4.646-2.635 8.558-4.78 11.457-10.962-7.462-.445-9.293 3.804-15.317 7.4l-4.744-7.984c4.384-7.832 7.362-6.05 10.61-16.622-10.702 1.556-9.668 5.595-16.048 11.141-4.025-2.327-5.853-4.087-10.03-6.648 1.868-8.383 6.198-15.021 4.458-20.215-13.482 5.107-4.385 19.05-18.499 13.926-4.921-8.053.908-11.569-4.013-19.699-6.508 5.355-2.033 1.887-4.962 10.803-3.061 9.31 1.601 5.833-7.074 6.649-5.442-8.246 1.206-15.127-4.144-23.226C94.385 4.187 97.695.36 96 10.734c-1.743 10.666 1.384 8.263-5.284 10.923-9.487-.74-4.32 2.674-7.122-9.03-2.247-9.393 1.78-7.374-6.921-9.614.314 24.212 6.528 17.985-1.873 21.25-11.587 2.582-4.133-20.698-16.627-15.185 2.208 5.354 7.365 17.77 1.134 21.112-8.31 4.454-5.689-9.629-15.175-14.597-4.317 10.981 4.634 14.262 3.03 22.371-.188.073-1.418 1.94-5.621-.972-6.525-4.522-2.303-8.586-13.457-11.292 1.182 9.358 6.732 14.852 12.482 19.633-2.989 5.086-3.973 4.773-7.577 10.241-3.878-4.232-9.78-11.643-15.915-13.117-1.537 12.057 7.398 14.417 13.236 21.739l-3.786 10.022c-8.463-2.277-13.58-10.777-21.486-11.546C6.454 82.225 25.622 74.95 23.09 86.481l-3.215 1.16c-.506.108-1.105.303-1.676.386L0 86.347c3.636 9.376 13.258 10.108 22.512 10.108-.316 20.536-13.897 5.462-21.776 18.193 10.914 6.709 14.146-5.576 25.341 2.472-3.118 12.824-18.164 3.689-21.619 18.194 17.531-.779 26.41-16.522 28.084 6.199-7.23 2.939-15.436 5.067-19.481 11.41 7.092 4.576 15.805-5.144 22.892-9.426l6.395 11.583c-8.526 9.914-12.986 6.175-14.264 20.664 10.79-4.574 13.034-14.632 20.506-14.122 14.135.965-.84 16.127-2.453 23.781 6.89-1.342 5.82-1.298 9.29-7.322 2.747-4.77 2.897-6.57 4.74-11.093l10.265 6.285c-2.764 8.473-5.887 8.903-5.39 15.832.368 5.16-.362 1.543 1.601 4.092 9.35-8.933 1.236-19.722 19.614-17.453-.135 6.164-.708 5.511-1.926 11.534-1.66 8.201-1.379 7.643.365 10.187 12.567-10.442-1.867-19.926 18.054-20.148-.138 12.701-5.332 19.946 6.018 22.686.061-27.722 2.472-20.952 7.444-24.707 2.843 2.443 1.705-1.027 5.147 9.6 1.457 4.5.351 3.832 3.457 8.301 7.279-2.093 5.525-1.625 3.509-9.198-2.43-9.134-3.844-7.721.948-14.318 11.289-.033 8.449 8.617 15.602 15.722 7.146-10.683-11.738-19.418-.579-24.842 6.835-1.67 7.207 5.742 16.047 10.108 1.579-17.005-11.556-7.774-5.438-23.674 8.621 3.55 8.363 7.927 17.474 9.523-1.157-13.263-17.887-9.649-9.451-21.72 10.575 3.652 8.442 9.924 18.501 6.581-4.094-12.49-15.758-9.558-15.285-16.97.663-10.383 13.162 3.386 20.856-6.166-11.505-4.674-16.802.651-18.054-11.68 6.79-5.114 12.6-2.312 18.054-6.064l-11.096-3.124c-9.031-2.893-3.206 1.45-6.735-4.962h.001z" fill="#000"/><path fill-rule="evenodd" clip-rule="evenodd" d="M116.91 50.945c-31.469 0-51.696 22.522-52.748 45.548-1.18 25.833 18.982 48.895 42.315 50.832 26.009 2.161 49.135-20.221 50.319-43.039 1.464-28.24-14.269-53.341-39.887-53.341h.001z" fill="#000"/><path fill-rule="evenodd" clip-rule="evenodd" d="M50.021 97.61c0-12.418 8.008-26.576 14.893-33.504 7.719-7.769 18.875-14.565 33.25-14.565 52.684 0 56.406 68.117 34.595 89.038-34.345 32.944-82.738 4.512-82.738-40.97zm38.246-55.032c-10.957 2.127-11.73 2.322-20.56 8.174-47.725 31.636-20.792 115.528 38.434 109.482 32.445-3.312 51.69-39.989 47.407-67.813-4.693-30.492-31.193-56.46-65.281-49.843z" fill="#000"/><path d="M92.061 114.65c2.517-.521 4.315-1.418 5.99-3.601 1.751-2.286 8.036-11.806 9.974-14.874.276-.45-.345-1.11-.664-.65-2.133 3.284-7.349 11.096-9.04 13.326-1.118 1.5-1.265 1.573-1.079.442.186-1.131 6.695-29.893 6.756-31.13.044-1.189-3.817-.39-5.183 1.598-.73 1.069-14.349 25.88-15.493 27.691-1.145 1.811-1.343.977-.974-.455.37-1.432 4.559-21.187 4.912-22.572.59-2.308.465-3.944-2.633-3.608-2.55.265-4.07 1.76-3.593 1.661 1.692-.35-7.674 25.81-9.346 32.103-.418 1.573.013 2.314 3.961 1.497 3.949-.817 4.565-1.556 5.5-2.755 2.995-4.861 10.855-18.861 16.611-29.19.74-1.334-.417 1.922-.878 3.504-.418 1.573-8.107 24.72-8.503 26.113-.397 1.394 1.166 1.42 3.682.9zm29.012-26.203c-2.82.584-5.659 3.576-7.225 5.911.789-2.656 1.357-4.784 1.57-5.878.214-1.093-3.656-1.21-4.795.817-.291.498-1.38 2.734-3.262 6.228-.416.742.448 1.044.664.65.324-.592 1.327-2.46.698-.626-.838 2.447-8.299 22.224-9.09 24.53-.515 1.505 1.188 1.241 3.157.79 1.708-.398 3.517-1.209 3.726-2.17.331-1.556 1.544-5.567 2.951-10.143.636.262 1.564.376 2.952.089 3.688-.763 8.405-5.237 10.904-12.531 1.855-5.412 1.264-8.394-2.25-7.667zm31.322-2.24c-4.201 6.379-5.837 8.685-6.793 10.063-.486.713-.876 1.143-.764.464.101-.764 3.193-13.909 3.609-16.181.256-1.452-3.901-.682-4.974.636-.019.023-.726-.04-.824-.02-8.232 1.595-15.647 8.325-18.033 15.29-2.128 6.211.795 7.093 3.528 6.527 3.384-.7 7.666-5.02 10.715-10.154-1.469 3.933-2.571 7.682-3.243 9.876-.686 2.241 5.467 2.279 7.514-.636 3.873-5.655 9.406-14.276 9.929-15.216.416-.741-.162-1.409-.664-.649zm-65.787 42.229v5.012h.882v-3.87h.099l1.88 3.87h.818l1.888-3.87h.09v3.87h.908v-5.012H91.88l-1.952 3.942h-.045l-1.942-3.942H86.61zm7.518 0v5.012h4.587v-.843h-3.67V131.3h3.184v-.825h-3.183v-1.205h3.534v-.834h-4.452zm5.261 0v.834h2.113v4.178h.918v-4.178h2.113v-.834h-5.144zm7.635.825h.567l1.043 2.582h-2.68l1.07-2.582zm-.558-.825l-2.176 5.012h.98l.342-.789H109l.342.789h.962l-2.113-5.012h-1.727zm4.587 0v5.012h2.562c1.367 0 2.68-1.006 2.68-2.511 0-1.504-1.313-2.501-2.68-2.501h-2.562zm1.124 1.024h1.438c.9 0 1.556.616 1.556 1.477 0 .861-.656 1.477-1.556 1.477h-1.438v-2.954zm4.927-1.024v5.012h4.64v-1.043h-3.515v-.997h3.048v-1.024h-3.048v-.924h3.39v-1.024h-4.515zm10.288.625c-.773-.58-1.583-.743-2.509-.743-1.268 0-2.311.489-2.311 1.55 0 .933.62 1.332 1.636 1.45l1.673.19c.423.045.567.182.567.453 0 .427-.576.626-1.367.626-.818 0-1.484-.218-2.167-.698l-.531.879c.791.589 1.556.807 2.572.807 1.493 0 2.581-.508 2.581-1.632 0-.924-.657-1.377-1.718-1.504l-1.493-.172c-.386-.045-.647-.118-.647-.408 0-.281.234-.535 1.205-.535.792 0 1.385.163 1.97.571l.539-.833v-.001zm.944-.625v5.012h1.124v-5.012h-1.124zm4.955 2.102v.934l1.268.045v.571c-.405.317-.818.453-1.529.453-.998 0-1.646-.607-1.646-1.595s.648-1.595 1.646-1.595c.819 0 1.232.226 1.628.743l.89-.508c-.567-.851-1.349-1.268-2.5-1.268-1.564 0-2.779 1.006-2.779 2.628s1.214 2.628 2.779 2.628c.746 0 1.259-.181 1.736-.516l.153.39h.701v-2.909h-2.347v-.001zm3.291-2.102v5.012h1.106v-3.381l2.977 3.381h1.07v-5.012h-1.115v3.371l-2.977-3.371h-1.061z" fill="#FEFEFE"/></svg>