<svg width="150" height="160" fill="none" xmlns="http://www.w3.org/2000/svg"><path fill-rule="evenodd" clip-rule="evenodd" d="M129.083 82.013c0 21.121-16.412 44.104-30 50.68-19.835 9.599-48.704-1.906-61.017-14.187-20.611-20.555-18.192-66.867 8.288-85.63 20.55-14.562 50.21-11.971 69.147 7.787 11.909 12.428 13.582 22.802 13.582 41.35zm6.615-8.086c1.446-10.521 8.076-2.24 12.462-11.321-3.48-1.9-6.151 1.49-14.249 1.616-3.203-13.566 7.061-3.572 8.045-16.172-5.547 1.408-5.644 3.074-11.882 5.117l-2.6-8.818c3.727-2.108 6.865-3.824 9.19-8.77-5.985-.355-7.454 3.044-12.286 5.921l-3.806-6.388c3.518-6.265 5.906-4.84 8.511-13.297-8.584 1.244-7.755 4.476-12.872 8.913-3.229-1.862-4.695-3.27-8.046-5.32 1.499-6.705 4.972-12.016 3.576-16.17-10.814 4.085-3.517 15.24-14.839 11.14-3.947-6.442.729-9.255-3.219-15.759-5.22 4.284-1.63 1.51-3.98 8.643-2.455 7.448 1.285 4.666-5.674 5.318-4.365-6.597.967-12.101-3.324-18.58-4.995 3.347-2.34.285-3.7 8.585-1.398 8.532 1.11 6.61-4.239 8.738-7.609-.592-3.465 2.14-5.712-7.225-1.802-7.514 1.428-5.899-5.552-7.69.252 19.369 5.237 14.387-1.502 17-9.295 2.066-3.315-16.559-13.337-12.148 1.771 4.283 5.908 14.216.91 16.89-6.667 3.563-4.564-7.704-12.173-11.679-3.463 8.786 3.717 11.41 2.431 17.898-.151.058-1.138 1.552-4.51-.778-5.233-3.618-1.846-6.869-10.794-9.034.949 7.486 5.4 11.882 10.012 15.706-2.397 4.07-3.186 3.82-6.078 8.194-3.11-3.386-7.844-9.315-12.765-10.494-1.233 9.646 5.934 11.533 10.617 17.39l-3.037 8.019C14.488 57.55 10.383 50.75 4.04 50.135c1.136 15.641 16.511 9.822 14.481 19.047l-2.579.928c-.406.086-.886.243-1.344.309L0 69.075c2.917 7.5 10.635 8.086 18.058 8.086C17.803 93.591 6.91 81.531.59 91.716c8.755 5.367 11.348-4.461 20.328 1.977-2.502 10.259-14.57 2.951-17.342 14.556 14.062-.623 21.184-13.218 22.527 4.958-5.8 2.352-12.382 4.054-15.627 9.129 5.69 3.66 12.678-4.115 18.363-7.542l5.13 9.267c-6.839 7.932-10.417 4.94-11.442 16.532 8.655-3.66 10.455-11.706 16.449-11.298 11.338.772-.674 12.902-1.968 19.024 5.527-1.073 4.669-1.038 7.451-5.857 2.205-3.816 2.325-5.256 3.803-8.874l8.234 5.028c-2.217 6.778-4.722 7.122-4.324 12.665.296 4.128-.29 1.235 1.285 3.274 7.5-7.147.991-15.778 15.733-13.962-.108 4.931-.568 4.408-1.545 9.227-1.33 6.561-1.106 6.114.293 8.15 10.08-8.354-1.498-15.942 14.482-16.119-.111 10.161-4.277 15.956 4.827 18.149.05-22.178 1.983-16.762 5.971-19.766 2.281 1.955 1.367-.822 4.129 7.68 1.169 3.6.282 3.065 2.773 6.641 5.839-1.675 4.431-1.3 2.815-7.359-1.95-7.307-3.084-6.176.76-11.454 9.055-.026 6.777 6.894 12.515 12.578 5.732-8.546-9.415-15.535-.465-19.874 5.483-1.336 5.781 4.593 12.873 8.086 1.266-13.603-9.271-6.219-4.363-18.939 6.916 2.84 6.709 6.342 14.017 7.619-.928-10.611-14.348-7.719-7.581-17.376 8.483 2.922 6.771 7.939 14.84 5.264-3.283-9.991-12.64-7.646-12.26-13.575.531-8.307 10.557 2.709 16.729-4.933-9.229-3.74-13.478.52-14.482-9.344 5.446-4.092 10.107-1.85 14.482-4.851l-8.9-2.5c-7.245-2.315-2.573 1.16-5.403-3.969l.001-.001z" fill="#000"/><path fill-rule="evenodd" clip-rule="evenodd" d="M93.778 40.753c-25.242 0-41.467 18.018-42.311 36.439-.947 20.666 15.227 39.116 33.943 40.666 20.863 1.728 39.413-16.177 40.362-34.431 1.175-22.594-11.445-42.674-31.994-42.674z" fill="#000"/><path fill-rule="evenodd" clip-rule="evenodd" d="M40.124 78.085c0-9.934 6.423-21.26 11.946-26.803 6.191-6.215 15.14-11.651 26.67-11.651 42.261 0 45.247 54.493 27.751 71.23-27.55 26.355-66.367 3.609-66.367-32.776zM70.802 34.06c-8.789 1.701-9.409 1.858-16.49 6.539-38.284 25.309-16.68 92.422 30.828 87.586 26.026-2.65 41.463-31.991 38.027-54.25-3.765-24.394-25.022-45.168-52.365-39.875z" fill="#000"/><path d="M73.846 91.717c2.019-.416 3.462-1.134 4.805-2.88 1.404-1.829 6.446-9.445 8-11.9.221-.36-.277-.887-.532-.52-1.711 2.627-5.895 8.877-7.252 10.661-.897 1.2-1.014 1.259-.865.354.15-.905 5.37-23.914 5.419-24.904.036-.951-3.062-.312-4.158 1.278-.584.855-11.51 20.704-12.427 22.153-.918 1.448-1.077.782-.78-.364.296-1.145 3.656-16.95 3.939-18.057.473-1.847.373-3.155-2.112-2.887-2.045.212-3.265 1.408-2.882 1.329 1.357-.28-6.156 20.648-7.497 25.682-.335 1.258.01 1.851 3.178 1.198 3.167-.653 3.66-1.245 4.41-2.205 2.404-3.888 8.708-15.088 13.326-23.352.592-1.066-.335 1.538-.705 2.804-.335 1.258-6.502 19.776-6.82 20.89-.319 1.116.935 1.137 2.953.72zm23.272-20.962c-2.263.467-4.54 2.86-5.796 4.729.633-2.125 1.088-3.828 1.26-4.702.17-.875-2.933-.97-3.846.653-.234.398-1.108 2.188-2.618 4.983-.333.593.36.835.533.52.26-.474 1.065-1.97.56-.501-.672 1.957-6.657 17.779-7.29 19.623-.414 1.205.952.993 2.53.632 1.37-.318 2.823-.967 2.99-1.736.266-1.244 1.239-4.453 2.367-8.114.51.21 1.254.301 2.368.071 2.958-.61 6.742-4.19 8.747-10.025 1.487-4.329 1.013-6.715-1.806-6.133zm25.124-1.792c-3.369 5.103-4.682 6.948-5.449 8.05-.39.57-.702.915-.612.371.08-.61 2.561-11.127 2.895-12.944.205-1.162-3.13-.546-3.991.508-.015.019-.581-.031-.66-.016-6.604 1.276-12.551 6.66-14.465 12.232-1.707 4.97.637 5.675 2.83 5.222 2.714-.56 6.148-4.015 8.594-8.123-1.178 3.146-2.062 6.146-2.601 7.9-.55 1.794 4.385 1.824 6.028-.508 3.106-4.524 7.545-11.421 7.964-12.172.333-.594-.13-1.128-.533-.52zm-52.77 33.783v4.009h.707v-3.095h.08l1.507 3.095h.657l1.514-3.095h.073v3.095h.728v-4.009H73.7l-1.566 3.154h-.036l-1.558-3.154h-1.067zm6.03 0v4.009h3.68v-.674h-2.944v-1.044h2.554v-.66h-2.554v-.964h2.835v-.667h-3.57zm4.22 0v.667h1.696v3.342h.736v-3.342h1.695v-.667h-4.126zm6.125.66h.454l.837 2.066h-2.15l.859-2.066zm-.448-.66l-1.745 4.009h.786l.274-.63h2.72l.273.63h.772l-1.695-4.009h-1.385zm3.68 0v4.009h2.055c1.096 0 2.15-.804 2.15-2.008 0-1.203-1.054-2.001-2.15-2.001h-2.056zm.9.819h1.155c.721 0 1.248.493 1.248 1.182s-.527 1.182-1.248 1.182H89.98v-2.364zm3.954-.819v4.009h3.721v-.833h-2.82v-.798h2.446v-.819h-2.446v-.74h2.72v-.819h-3.621zm8.251.5c-.62-.463-1.269-.594-2.012-.594-1.017 0-1.854.391-1.854 1.24 0 .746.498 1.065 1.313 1.16l1.342.152c.339.036.454.145.454.363 0 .34-.461.5-1.096.5-.657 0-1.19-.174-1.739-.558l-.425.703c.634.471 1.248.645 2.063.645 1.197 0 2.07-.406 2.07-1.305 0-.74-.527-1.102-1.378-1.203l-1.197-.138c-.31-.036-.52-.094-.52-.326 0-.225.188-.428.967-.428.635 0 1.111.13 1.58.457l.433-.667-.001-.001zm.758-.5v4.009h.902v-4.009h-.902zm3.975 1.682v.747l1.017.036v.457c-.325.253-.657.362-1.227.362-.8 0-1.32-.485-1.32-1.276 0-.79.52-1.276 1.32-1.276.657 0 .989.181 1.306.595l.714-.406c-.455-.682-1.082-1.015-2.005-1.015-1.255 0-2.229.805-2.229 2.102 0 1.298.973 2.103 2.229 2.103.598 0 1.01-.145 1.392-.413l.123.311h.562v-2.327h-1.882zm2.64-1.682v4.009h.887v-2.704l2.387 2.704h.859v-4.009h-.895v2.697l-2.387-2.697h-.852.001z" fill="#FEFEFE"/></svg>