<svg width="896" height="217" fill="none" xmlns="http://www.w3.org/2000/svg"><path d="M297.967 5.219l-.003-.011c28.752-7.897 54.049-1.927 77.871 10.691 21.305 11.285 41.341 27.834 61.574 44.546 2.487 2.054 4.977 4.11 7.473 6.16 22.717 18.657 45.89 36.715 71.282 46.467 25.494 9.791 53.161 11.191 84.777-3.284 9.444-4.323 18.583-9.052 27.578-13.707 2.223-1.15 4.437-2.297 6.645-3.43 11.161-5.734 22.179-11.176 33.476-15.465 22.56-8.565 46.175-12.51 74.041-4.909l.314-1.427-.314 1.427c53.858 14.685 110.76 66.383 136.291 120.203 38.106 80.33-4.703 154.458-50.788 211.128-83.407 102.5-200.064 184.901-322.201 228.792-92.08 33.085-207.906 41.308-297.25-25.382l-.865 1.158.865-1.158c-37.825-28.226-99.985-84.924-146.214-147.871-23.114-31.472-42.192-64.435-52.284-96.129-10.088-31.684-11.164-61.989 1.551-88.295l-1.375-.706 1.375.706c10.266-21.24 30.411-38.972 52.061-55.977 4.25-3.338 8.559-6.648 12.858-9.951 17.496-13.443 34.829-26.759 47.32-41.27h0c8.852-10.299 18.229-22.02 28.084-34.34a5456.57 5456.57 0 018.625-10.763c13.051-16.234 26.894-33.09 41.484-48.886 29.221-31.634 61.277-58.824 95.749-68.317z" stroke="#fff" stroke-width="3"/></svg>